<!DOCTYPE svg PUBLIC "-//W3C//DTD SVG 1.1//EN" "http://www.w3.org/Graphics/SVG/1.1/DTD/svg11.dtd">
<!-- Uploaded to: SVG Repo, www.svgrepo.com, Transformed by: SVG Repo Mixer Tools -->
<svg fill="#0c7e49" height="800px" width="800px" version="1.1" id="Capa_1" xmlns="http://www.w3.org/2000/svg" xmlns:xlink="http://www.w3.org/1999/xlink" viewBox="0 0 470.00 470.00" xml:space="preserve" transform="matrix(1, 0, 0, 1, 0, 0)rotate(0)" stroke="#0c7e49" stroke-width="0.0047">
<g id="SVGRepo_bgCarrier" stroke-width="0"/>
<g id="SVGRepo_tracerCarrier" stroke-linecap="round" stroke-linejoin="round" stroke="#CCCCCC" stroke-width="11.28"> <g> <path d="M366.897,0H103.103c-4.143,0-7.5,3.357-7.5,7.5v58.317v167.153V462.5c0,4.143,3.357,7.5,7.5,7.5h263.795 c4.143,0,7.5-3.357,7.5-7.5V232.971V65.817V7.5C374.397,3.357,371.04,0,366.897,0z M359.397,225.471H110.603V73.317h248.795 V225.471z M110.603,240.471h248.795v75H110.603V240.471z M359.397,15v43.317H110.603V15H359.397z M110.603,455V330.471h248.795V455 H110.603z"/> <path d="M266.897,340.471h-63.795c-4.143,0-7.5,3.357-7.5,7.5V412.5c0,4.143,3.357,7.5,7.5,7.5h63.795c4.143,0,7.5-3.357,7.5-7.5 v-64.529C274.397,343.828,271.04,340.471,266.897,340.471z M259.397,405h-48.795v-49.529h48.795V405z"/> <path d="M326.897,285.471h-10c-4.143,0-7.5,3.357-7.5,7.5s3.357,7.5,7.5,7.5h10c4.143,0,7.5-3.357,7.5-7.5 S331.04,285.471,326.897,285.471z"/> <path d="M286.897,285.471h-10c-4.143,0-7.5,3.357-7.5,7.5s3.357,7.5,7.5,7.5h10c4.143,0,7.5-3.357,7.5-7.5 S291.04,285.471,286.897,285.471z"/> <path d="M316.897,270.471h10c4.143,0,7.5-3.357,7.5-7.5s-3.357-7.5-7.5-7.5h-10c-4.143,0-7.5,3.357-7.5,7.5 S312.755,270.471,316.897,270.471z"/> <path d="M286.897,255.471h-10c-4.143,0-7.5,3.357-7.5,7.5s3.357,7.5,7.5,7.5h10c4.143,0,7.5-3.357,7.5-7.5 S291.04,255.471,286.897,255.471z"/> <path d="M153.103,285.471h-10c-4.143,0-7.5,3.357-7.5,7.5s3.357,7.5,7.5,7.5h10c4.143,0,7.5-3.357,7.5-7.5 S157.245,285.471,153.103,285.471z"/> <path d="M235,255.471c-12.406,0-22.5,10.094-22.5,22.5s10.094,22.5,22.5,22.5s22.5-10.094,22.5-22.5S247.406,255.471,235,255.471z M235,285.471c-4.136,0-7.5-3.364-7.5-7.5s3.364-7.5,7.5-7.5s7.5,3.364,7.5,7.5S239.136,285.471,235,285.471z"/> <path d="M133.103,210.471h203.794c4.143,0,7.5-3.357,7.5-7.5V95.817c0-4.143-3.357-7.5-7.5-7.5H133.103c-4.143,0-7.5,3.357-7.5,7.5 v107.153C125.603,207.113,128.96,210.471,133.103,210.471z M140.603,103.317h188.794v92.153H140.603V103.317z"/> </g> </g>
<g id="SVGRepo_iconCarrier"> <g> <path d="M366.897,0H103.103c-4.143,0-7.5,3.357-7.5,7.5v58.317v167.153V462.5c0,4.143,3.357,7.5,7.5,7.5h263.795 c4.143,0,7.5-3.357,7.5-7.5V232.971V65.817V7.5C374.397,3.357,371.04,0,366.897,0z M359.397,225.471H110.603V73.317h248.795 V225.471z M110.603,240.471h248.795v75H110.603V240.471z M359.397,15v43.317H110.603V15H359.397z M110.603,455V330.471h248.795V455 H110.603z"/> <path d="M266.897,340.471h-63.795c-4.143,0-7.5,3.357-7.5,7.5V412.5c0,4.143,3.357,7.5,7.5,7.5h63.795c4.143,0,7.5-3.357,7.5-7.5 v-64.529C274.397,343.828,271.04,340.471,266.897,340.471z M259.397,405h-48.795v-49.529h48.795V405z"/> <path d="M326.897,285.471h-10c-4.143,0-7.5,3.357-7.5,7.5s3.357,7.5,7.5,7.5h10c4.143,0,7.5-3.357,7.5-7.5 S331.04,285.471,326.897,285.471z"/> <path d="M286.897,285.471h-10c-4.143,0-7.5,3.357-7.5,7.5s3.357,7.5,7.5,7.5h10c4.143,0,7.5-3.357,7.5-7.5 S291.04,285.471,286.897,285.471z"/> <path d="M316.897,270.471h10c4.143,0,7.5-3.357,7.5-7.5s-3.357-7.5-7.5-7.5h-10c-4.143,0-7.5,3.357-7.5,7.5 S312.755,270.471,316.897,270.471z"/> <path d="M286.897,255.471h-10c-4.143,0-7.5,3.357-7.5,7.5s3.357,7.5,7.5,7.5h10c4.143,0,7.5-3.357,7.5-7.5 S291.04,255.471,286.897,255.471z"/> <path d="M153.103,285.471h-10c-4.143,0-7.5,3.357-7.5,7.5s3.357,7.5,7.5,7.5h10c4.143,0,7.5-3.357,7.5-7.5 S157.245,285.471,153.103,285.471z"/> <path d="M235,255.471c-12.406,0-22.5,10.094-22.5,22.5s10.094,22.5,22.5,22.5s22.5-10.094,22.5-22.5S247.406,255.471,235,255.471z M235,285.471c-4.136,0-7.5-3.364-7.5-7.5s3.364-7.5,7.5-7.5s7.5,3.364,7.5,7.5S239.136,285.471,235,285.471z"/> <path d="M133.103,210.471h203.794c4.143,0,7.5-3.357,7.5-7.5V95.817c0-4.143-3.357-7.5-7.5-7.5H133.103c-4.143,0-7.5,3.357-7.5,7.5 v107.153C125.603,207.113,128.96,210.471,133.103,210.471z M140.603,103.317h188.794v92.153H140.603V103.317z"/> </g> </g>
</svg>